<?xml version="1.0" encoding="UTF-8" standalone="no"?>
<svg
   xmlns:dc="http://purl.org/dc/elements/1.1/"
   xmlns:cc="http://creativecommons.org/ns#"
   xmlns:rdf="http://www.w3.org/1999/02/22-rdf-syntax-ns#"
   xmlns:svg="http://www.w3.org/2000/svg"
   xmlns="http://www.w3.org/2000/svg"
   xmlns:sodipodi="http://sodipodi.sourceforge.net/DTD/sodipodi-0.dtd"
   xmlns:inkscape="http://www.inkscape.org/namespaces/inkscape"
   version="1.1"
   id="Layer_1"
   x="0px"
   y="0px"
   viewBox="0 0 122.88 90.78"
   style="enable-background:new 0 0 122.88 90.78"
   xml:space="preserve"
   sodipodi:docname="camera.svg"
   inkscape:version="0.92.5 (2060ec1f9f, 2020-04-08)"><metadata
     id="metadata13"><rdf:RDF><cc:Work
         rdf:about=""><dc:format>image/svg+xml</dc:format><dc:type
           rdf:resource="http://purl.org/dc/dcmitype/StillImage" /></cc:Work></rdf:RDF></metadata><defs
     id="defs11" /><sodipodi:namedview
     pagecolor="#ffffff"
     bordercolor="#666666"
     borderopacity="1"
     objecttolerance="10"
     gridtolerance="10"
     guidetolerance="10"
     inkscape:pageopacity="0"
     inkscape:pageshadow="2"
     inkscape:window-width="640"
     inkscape:window-height="480"
     id="namedview9"
     showgrid="false"
     inkscape:zoom="2.5996916"
     inkscape:cx="61.439999"
     inkscape:cy="45.389999"
     inkscape:window-x="0"
     inkscape:window-y="25"
     inkscape:window-maximized="0"
     inkscape:current-layer="Layer_1" /><style
     type="text/css"
     id="style2">.st0{fill-rule:evenodd;clip-rule:evenodd;}</style><g
     id="g6"
     style="fill:#ffffff"><path
       class="st0"
       d="M46.86,0.05h43.63l9.94,17.7h20.48c1.09,0,1.98,0.92,1.98,1.98v69.08c0,1.06-0.91,1.98-1.98,1.98H1.98 C0.92,90.78,0,89.89,0,88.81l0-69.08c0-1.09,0.89-1.98,1.98-1.98h9.21V11.4h11.38v6.35h12.36c2.57-5.08,5.14-10.15,7.71-15.23 C44.2-0.57,43.34,0.05,46.86,0.05L46.86,0.05z M110.07,26.5c3.26,0,5.9,2.64,5.9,5.9c0,3.26-2.64,5.9-5.9,5.9 c-3.26,0-5.9-2.64-5.9-5.9C104.18,29.14,106.82,26.5,110.07,26.5L110.07,26.5L110.07,26.5z M66.64,33.37 c9.87,0,17.88,8.01,17.88,17.88c0,9.87-8.01,17.88-17.88,17.88c-9.87,0-17.88-8.01-17.88-17.88 C48.76,41.38,56.77,33.37,66.64,33.37L66.64,33.37z M66.64,21.73c16.31,0,29.53,13.22,29.53,29.53c0,16.3-13.22,29.53-29.53,29.53 c-16.3,0-29.53-13.23-29.53-29.53C37.12,34.95,50.34,21.73,66.64,21.73L66.64,21.73z"
       id="path4"
       style="fill:#ffffff" /></g></svg>