<?xml version="1.0" encoding="UTF-8" standalone="no"?>
<svg
   xmlns:dc="http://purl.org/dc/elements/1.1/"
   xmlns:cc="http://creativecommons.org/ns#"
   xmlns:rdf="http://www.w3.org/1999/02/22-rdf-syntax-ns#"
   xmlns:svg="http://www.w3.org/2000/svg"
   xmlns="http://www.w3.org/2000/svg"
   xmlns:sodipodi="http://sodipodi.sourceforge.net/DTD/sodipodi-0.dtd"
   xmlns:inkscape="http://www.inkscape.org/namespaces/inkscape"
   version="1.1"
   id="Layer_1"
   x="0px"
   y="0px"
   viewBox="0 0 237.54 237.54"
   style="enable-background:new 0 0 237.54 237.54"
   xml:space="preserve"
   sodipodi:docname="clock-line.svg"
   inkscape:version="0.92.5 (2060ec1f9f, 2020-04-08)"><metadata
     id="metadata11"><rdf:RDF><cc:Work
         rdf:about=""><dc:format>image/svg+xml</dc:format><dc:type
           rdf:resource="http://purl.org/dc/dcmitype/StillImage" /></cc:Work></rdf:RDF></metadata><defs
     id="defs9" /><sodipodi:namedview
     pagecolor="#ffffff"
     bordercolor="#666666"
     borderopacity="1"
     objecttolerance="10"
     gridtolerance="10"
     guidetolerance="10"
     inkscape:pageopacity="0"
     inkscape:pageshadow="2"
     inkscape:window-width="640"
     inkscape:window-height="480"
     id="namedview7"
     showgrid="false"
     inkscape:zoom="0.99351691"
     inkscape:cx="118.77"
     inkscape:cy="118.77"
     inkscape:window-x="0"
     inkscape:window-y="25"
     inkscape:window-maximized="0"
     inkscape:current-layer="Layer_1" /><g
     id="g4"
     style="fill:#e6e6e6"><path
       d="M118.77,0c32.8,0,62.49,13.29,83.98,34.79c21.49,21.49,34.79,51.19,34.79,83.98s-13.29,62.49-34.79,83.98 c-21.49,21.49-51.19,34.79-83.98,34.79c-32.8,0-62.49-13.29-83.98-34.79C13.29,181.26,0,151.56,0,118.77s13.29-62.49,34.79-83.98 C56.28,13.29,85.97,0,118.77,0L118.77,0z M109.06,60.2c0-3.59,2.91-6.5,6.5-6.5s6.5,2.91,6.5,6.5v60l45.14,26.76 c3.08,1.82,4.11,5.8,2.29,8.89c-1.82,3.08-5.8,4.11-8.89,2.29l-47.99-28.45c-2.11-1.08-3.55-3.27-3.55-5.79V60.2L109.06,60.2z M193.56,43.98C174.42,24.84,147.98,13,118.77,13c-29.21,0-55.65,11.84-74.79,30.98C24.84,63.12,13,89.56,13,118.77 c0,29.21,11.84,55.65,30.98,74.79c19.14,19.14,45.58,30.98,74.79,30.98c29.21,0,55.65-11.84,74.79-30.98 c19.14-19.14,30.98-45.58,30.98-74.79C224.54,89.56,212.7,63.12,193.56,43.98L193.56,43.98z"
       id="path2"
       style="fill:#e6e6e6" /></g></svg>