<?xml version="1.0" encoding="UTF-8" standalone="no"?>
<svg
   xmlns:dc="http://purl.org/dc/elements/1.1/"
   xmlns:cc="http://creativecommons.org/ns#"
   xmlns:rdf="http://www.w3.org/1999/02/22-rdf-syntax-ns#"
   xmlns:svg="http://www.w3.org/2000/svg"
   xmlns="http://www.w3.org/2000/svg"
   xmlns:sodipodi="http://sodipodi.sourceforge.net/DTD/sodipodi-0.dtd"
   xmlns:inkscape="http://www.inkscape.org/namespaces/inkscape"
   version="1.1"
   id="Layer_1"
   x="0px"
   y="0px"
   width="122.879px"
   height="119.799px"
   viewBox="0 0 122.879 119.799"
   enable-background="new 0 0 122.879 119.799"
   xml:space="preserve"
   sodipodi:docname="search.svg"
   inkscape:version="0.92.5 (2060ec1f9f, 2020-04-08)"><metadata
     id="metadata11"><rdf:RDF><cc:Work
         rdf:about=""><dc:format>image/svg+xml</dc:format><dc:type
           rdf:resource="http://purl.org/dc/dcmitype/StillImage" /><dc:title /></cc:Work></rdf:RDF></metadata><defs
     id="defs9" /><sodipodi:namedview
     pagecolor="#ffffff"
     bordercolor="#666666"
     borderopacity="1"
     objecttolerance="10"
     gridtolerance="10"
     guidetolerance="10"
     inkscape:pageopacity="0"
     inkscape:pageshadow="2"
     inkscape:window-width="640"
     inkscape:window-height="480"
     id="namedview7"
     showgrid="false"
     inkscape:zoom="1.9699663"
     inkscape:cx="61.439499"
     inkscape:cy="59.899502"
     inkscape:window-x="0"
     inkscape:window-y="25"
     inkscape:window-maximized="0"
     inkscape:current-layer="Layer_1" /><g
     id="g4"
     style="fill:#b3b3b3"
     transform="matrix(-1,0,0,1,122.87889,0)"><path
       d="m 49.988,0 h 0.016 v 0.007 c 13.799,0.004 26.294,5.601 35.336,14.645 9.027,9.031 14.619,21.515 14.628,35.303 h 0.007 v 0.033 0.04 h -0.007 c -0.005,5.557 -0.917,10.905 -2.594,15.892 -0.281,0.837 -0.575,1.641 -0.877,2.409 v 0.007 c -1.446,3.66 -3.315,7.12 -5.547,10.307 l 29.082,26.139 0.018,0.016 0.157,0.146 0.011,0.011 c 1.642,1.563 2.536,3.656 2.649,5.78 0.11,2.1 -0.543,4.248 -1.979,5.971 l -0.011,0.016 -0.175,0.203 -0.035,0.035 -0.146,0.16 -0.016,0.021 c -1.565,1.642 -3.654,2.534 -5.78,2.646 -2.097,0.111 -4.247,-0.54 -5.971,-1.978 l -0.015,-0.011 -0.204,-0.175 -0.029,-0.024 -29.745,-26.734 c -0.88,0.62 -1.778,1.209 -2.687,1.765 -1.233,0.755 -2.51,1.466 -3.813,2.115 -6.699,3.342 -14.269,5.222 -22.272,5.222 v 0.007 H 49.973 V 99.967 C 36.174,99.963 23.677,94.366 14.635,85.322 5.605,76.291 0.016,63.805 0.007,50.021 H 0 V 49.988 49.972 H 0.007 C 0.011,36.173 5.608,23.676 14.652,14.634 23.683,5.608 36.167,0.016 49.955,0.007 V 0 h 0.033 z m 0.016,11.21 v 0.007 H 49.988 49.955 V 11.21 C 39.269,11.217 29.583,15.56 22.571,22.569 15.56,29.578 11.213,39.274 11.21,49.973 h 0.007 v 0.016 0.033 H 11.21 c 0.007,10.686 4.347,20.367 11.359,27.381 7.009,7.012 16.705,11.359 27.403,11.361 v -0.007 h 0.016 0.033 v 0.007 c 10.686,-0.007 20.368,-4.348 27.382,-11.359 7.011,-7.009 11.358,-16.702 11.36,-27.4 h -0.006 v -0.016 -0.033 h 0.006 C 88.757,39.27 84.413,29.584 77.405,22.572 70.396,15.56 60.703,11.213 50.004,11.21 Z"
       id="path2"
       style="fill:#b3b3b3"
       inkscape:connector-curvature="0" /></g></svg>