<?xml version="1.0" encoding="UTF-8" standalone="no"?>
<svg
   xmlns:dc="http://purl.org/dc/elements/1.1/"
   xmlns:cc="http://creativecommons.org/ns#"
   xmlns:rdf="http://www.w3.org/1999/02/22-rdf-syntax-ns#"
   xmlns:svg="http://www.w3.org/2000/svg"
   xmlns="http://www.w3.org/2000/svg"
   xmlns:sodipodi="http://sodipodi.sourceforge.net/DTD/sodipodi-0.dtd"
   xmlns:inkscape="http://www.inkscape.org/namespaces/inkscape"
   width="64"
   height="64"
   shape-rendering="geometricPrecision"
   text-rendering="geometricPrecision"
   image-rendering="optimizeQuality"
   fill-rule="evenodd"
   clip-rule="evenodd"
   viewBox="0 0 640 640"
   version="1.1"
   id="svg4"
   sodipodi:docname="share.svg"
   inkscape:version="0.92.5 (2060ec1f9f, 2020-04-08)">
  <metadata
     id="metadata10">
    <rdf:RDF>
      <cc:Work
         rdf:about="">
        <dc:format>image/svg+xml</dc:format>
        <dc:type
           rdf:resource="http://purl.org/dc/dcmitype/StillImage" />
      </cc:Work>
    </rdf:RDF>
  </metadata>
  <defs
     id="defs8" />
  <sodipodi:namedview
     pagecolor="#ffffff"
     bordercolor="#666666"
     borderopacity="1"
     objecttolerance="10"
     gridtolerance="10"
     guidetolerance="10"
     inkscape:pageopacity="0"
     inkscape:pageshadow="2"
     inkscape:window-width="640"
     inkscape:window-height="480"
     id="namedview6"
     showgrid="false"
     inkscape:zoom="3.6875"
     inkscape:cx="32"
     inkscape:cy="32"
     inkscape:window-x="0"
     inkscape:window-y="25"
     inkscape:window-maximized="0"
     inkscape:current-layer="svg4" />
  <path
     fill-rule="nonzero"
     d="M199.715 241.137l205.833-101.564a118.488 118.488 0 0 1-1.984-21.72C403.564 52.571 456.5-.367 521.782-.367c65.292 0 118.23 52.938 118.23 118.218 0 65.292-52.938 118.218-118.23 118.218-25.808 0-49.702-8.256-69.155-22.3L236.27 320.533c.107 2.055.166 4.146.166 6.224 0 3.626-.177 7.217-.508 10.772l199.018 98.198c21.118-19.736 49.489-31.796 80.67-31.796 65.28 0 118.218 52.926 118.218 118.218 0 65.28-52.938 118.218-118.218 118.218S397.398 587.43 397.398 522.148c0-2.492.083-4.972.225-7.417L196.36 415.423c-20.835 18.378-48.178 29.551-78.143 29.551-65.292 0-118.23-52.937-118.23-118.218 0-65.292 52.938-118.218 118.23-118.218 31.595 0 60.296 12.402 81.497 32.6z"
     id="path2"
     style="fill:#b3b3b3" />
</svg>
